<svg xmlns:xlink="http://www.w3.org/1999/xlink" width="192" height="30" viewBox="0 0 154 24" fill="none" xmlns="http://www.w3.org/2000/svg" class=""><path d="M52.9533 6.65348C51.4771 6.65348 50.31 7.14482 49.453 8.12793C48.6019 9.10462 48.1756 10.4447 48.1756 12.1481C48.1756 13.8999 48.5865 15.2554 49.407 16.2137C50.2336 17.166 51.4093 17.6419 52.9349 17.6419C53.8718 17.6419 54.9401 17.4741 56.1407 17.1382V18.5026C55.2098 18.8501 54.0612 19.0243 52.6961 19.0243C50.718 19.0243 49.1898 18.4264 48.112 17.2297C47.0403 16.0335 46.5044 14.3331 46.5044 12.1297C46.5044 10.7499 46.762 9.54118 47.276 8.50329C47.7964 7.46539 48.544 6.66589 49.5178 6.10435C50.4973 5.54282 51.6489 5.26205 52.9718 5.26205C54.3802 5.26205 55.6112 5.51843 56.665 6.03117L56.0033 7.36824C54.9861 6.89187 53.9697 6.65348 52.9533 6.65348Z" fill="#FFFFFF"></path><path d="M66.8256 13.9559C66.8256 15.5473 66.4263 16.7918 65.627 17.6882C64.8277 18.5793 63.7237 19.0244 62.3151 19.0244C61.4448 19.0244 60.6724 18.8199 59.9976 18.4098C59.3228 17.9997 58.8019 17.4122 58.4346 16.6461C58.0673 15.88 57.8843 14.9831 57.8843 13.9559C57.8843 12.3646 58.2806 11.1263 59.0742 10.2411C59.8669 9.35054 60.9683 8.90503 62.3773 8.90503C63.7382 8.90503 64.8189 9.35928 65.6183 10.2678C66.423 11.1767 66.8256 12.4062 66.8256 13.9559ZM59.4116 13.9559C59.4116 15.203 59.6602 16.1531 60.1574 16.8064C60.655 17.4597 61.3858 17.7865 62.3508 17.7865C63.3153 17.7865 64.0462 17.463 64.5434 16.8155C65.0468 16.1627 65.2979 15.2092 65.2979 13.9564C65.2979 12.7152 65.0468 11.7738 64.5434 11.1326C64.0462 10.4851 63.3091 10.1616 62.3329 10.1616C61.3684 10.1616 60.6396 10.4793 60.1482 11.1147C59.6573 11.7496 59.4116 12.6969 59.4116 13.9559Z" fill="#FFFFFF"></path><path d="M81.6154 19.0244V12.5595C81.6154 11.7674 81.4501 11.175 81.1199 10.7825C80.7897 10.3837 80.2772 10.1841 79.5817 10.1841C78.6685 10.1841 77.9932 10.4532 77.5572 10.991C77.1212 11.5288 76.903 12.3574 76.903 13.4754V19.0244H75.4352V12.5595C75.4352 11.7674 75.2703 11.175 74.9401 10.7825C74.6103 10.3837 74.0937 10.1841 73.3929 10.1841C72.4734 10.1841 71.7985 10.468 71.3683 11.0364C70.9443 11.5983 70.7319 12.5231 70.7319 13.8106V19.0244H69.264V9.08684H70.4579L70.6968 10.4469H70.767C71.0439 9.96328 71.4336 9.58525 71.9341 9.31358C72.4411 9.0415 73.0069 8.90546 73.6313 8.90546C75.1463 8.90546 76.1364 9.46785 76.6022 10.5918H76.6729C76.9613 10.0718 77.3803 9.66068 77.9283 9.35851C78.4763 9.05633 79.1015 8.90503 79.8024 8.90503C80.8988 8.90503 81.7187 9.19534 82.2605 9.77554C82.8088 10.3498 83.0824 11.2716 83.0824 12.5409V19.0239H81.6154V19.0244Z" fill="#FFFFFF"></path><path d="M98.2784 19.0244V12.5595C98.2784 11.7674 98.1131 11.175 97.7833 10.7825C97.4531 10.3837 96.9403 10.1841 96.2444 10.1841C95.3312 10.1841 94.656 10.4532 94.2205 10.991C93.7841 11.5288 93.5659 12.3574 93.5659 13.4754V19.0244H92.0981V12.5595C92.0981 11.7674 91.9336 11.175 91.6035 10.7825C91.2733 10.3837 90.7576 10.1841 90.0564 10.1841C89.1365 10.1841 88.4617 10.468 88.0319 11.0364C87.6076 11.5983 87.3956 12.5231 87.3956 13.8106V19.0244H85.9274V9.08684H87.1212L87.36 10.4469H87.4311C87.708 9.96328 88.0968 9.58525 88.5977 9.31358C89.1051 9.0415 89.6708 8.90546 90.2952 8.90546C91.8093 8.90546 92.8002 9.46785 93.2655 10.5918H93.3366C93.6254 10.0718 94.0436 9.66068 94.5915 9.35851C95.1399 9.05633 95.7647 8.90503 96.4664 8.90503C97.5622 8.90503 98.3812 9.19534 98.9234 9.77554C99.4713 10.3498 99.7457 11.2716 99.7457 12.5409V19.0239H98.2784V19.0244Z" fill="#FFFFFF"></path><path d="M106.779 19.0244C105.359 19.0244 104.236 18.5851 103.412 17.7061C102.593 16.8271 102.184 15.6067 102.184 14.0448C102.184 12.4709 102.564 11.2209 103.324 10.2945C104.09 9.36805 105.116 8.90503 106.402 8.90503C107.606 8.90503 108.559 9.30892 109.26 10.1167C109.962 10.9182 110.313 11.9783 110.313 13.297V14.2322H103.693C103.722 15.3785 104.006 16.2483 104.543 16.8425C105.086 17.4367 105.85 17.7336 106.832 17.7336C107.866 17.7336 108.889 17.5137 109.9 17.0744V18.3927C109.386 18.6184 108.898 18.7787 108.436 18.8736C107.98 18.974 107.428 19.0244 106.779 19.0244ZM106.384 10.1429C105.613 10.1429 104.996 10.3982 104.534 10.9091C104.078 11.4196 103.809 12.1262 103.727 13.0289H108.752C108.752 12.0966 108.547 11.3837 108.138 10.8912C107.729 10.3923 107.145 10.1429 106.384 10.1429Z" fill="#FFFFFF"></path><path d="M117.26 8.90503C117.699 8.90503 118.093 8.94105 118.441 9.01395L118.234 10.41C117.825 10.3193 117.465 10.274 117.152 10.274C116.353 10.274 115.668 10.6008 115.096 11.2535C114.531 11.9066 114.248 12.7195 114.248 13.6926V19.0244H112.751V9.08643H113.987L114.158 10.9271H114.23C114.597 10.2804 115.039 9.78151 115.556 9.431C116.073 9.08049 116.641 8.90503 117.26 8.90503Z" fill="#FFFFFF"></path><path d="M124.014 19.0244C122.63 19.0244 121.556 18.5909 120.795 17.7241C120.039 16.8509 119.661 15.6185 119.661 14.0271C119.661 12.3942 120.044 11.1322 120.812 10.2411C121.585 9.35054 122.685 8.90503 124.11 8.90503C124.569 8.90503 125.029 8.95541 125.488 9.05659C125.947 9.15735 126.308 9.27642 126.57 9.41258L126.125 10.6688C125.805 10.5384 125.456 10.4314 125.078 10.3481C124.7 10.259 124.366 10.2145 124.074 10.2145C122.132 10.2145 121.16 11.4794 121.16 14.0092C121.16 15.2088 121.396 16.1294 121.867 16.771C122.344 17.4122 123.048 17.7332 123.979 17.7332C124.775 17.7332 125.593 17.5579 126.43 17.2073V18.5172C125.791 18.8553 124.985 19.0244 124.014 19.0244Z" fill="#FFFFFF"></path><path d="M132.79 19.0244C131.37 19.0244 130.247 18.5851 129.423 17.7061C128.605 16.8271 128.195 15.6067 128.195 14.0448C128.195 12.4709 128.576 11.2209 129.335 10.2945C130.101 9.36805 131.127 8.90503 132.413 8.90503C133.617 8.90503 134.57 9.30892 135.271 10.1167C135.973 10.9182 136.324 11.9783 136.324 13.297V14.2322H129.704C129.733 15.3785 130.017 16.2483 130.554 16.8425C131.098 17.4367 131.861 17.7336 132.843 17.7336C133.877 17.7336 134.901 17.5137 135.912 17.0744V18.3927C135.397 18.6184 134.909 18.7787 134.447 18.8736C133.991 18.974 133.439 19.0244 132.79 19.0244ZM132.396 10.1429C131.624 10.1429 131.007 10.3982 130.545 10.9091C130.09 11.4196 129.82 12.1262 129.739 13.0289H134.763C134.763 12.0966 134.558 11.3837 134.149 10.8912C133.74 10.3923 133.156 10.1429 132.396 10.1429Z" fill="#FFFFFF"></path><path d="M138.054 17.7728C138.054 17.3862 138.141 17.0944 138.315 16.8981C138.495 16.6961 138.75 16.5949 139.08 16.5949C139.417 16.5949 139.678 16.6961 139.863 16.8981C140.054 17.0944 140.15 17.3862 140.15 17.7728C140.15 18.148 140.054 18.437 139.863 18.639C139.672 18.841 139.411 18.9422 139.08 18.9422C138.784 18.9422 138.538 18.8523 138.341 18.6734C138.15 18.4884 138.054 18.1885 138.054 17.7728Z" fill="#FFFFFF"></path><path d="M141.854 22.5467C141.303 22.5467 140.857 22.4742 140.515 22.3301V21.1611C140.915 21.2765 141.309 21.3344 141.697 21.3344C142.149 21.3344 142.48 21.2101 142.688 20.962C142.903 20.7191 143.01 20.3467 143.01 19.8448V8.79451H144.454V19.7408C144.454 21.6112 143.587 22.5467 141.854 22.5467ZM142.888 6.22258C142.888 5.8935 142.969 5.65387 143.132 5.5037C143.294 5.34787 143.497 5.26974 143.741 5.26974C143.972 5.26974 144.172 5.34746 144.341 5.5037C144.509 5.65954 144.593 5.89917 144.593 6.22258C144.593 6.54599 144.509 6.78845 144.341 6.94996C144.173 7.1058 143.973 7.18392 143.741 7.18392C143.497 7.18392 143.294 7.1062 143.132 6.94996C142.97 6.78845 142.888 6.54599 142.888 6.22258Z" fill="#FFFFFF"></path><path d="M153.8 16.1831C153.8 17.0916 153.462 17.7923 152.787 18.2853C152.11 18.7783 151.162 19.0244 149.941 19.0244C148.649 19.0244 147.641 18.8199 146.917 18.4098V17.0379C147.386 17.2752 147.887 17.4626 148.42 17.5991C148.96 17.7357 149.479 17.804 149.977 17.804C150.747 17.804 151.34 17.6824 151.755 17.4388C152.17 17.189 152.377 16.8122 152.377 16.3072C152.377 15.9274 152.211 15.6039 151.879 15.3366C151.553 15.0635 150.913 14.7425 149.959 14.374C149.052 14.0359 148.405 13.7415 148.02 13.4925C147.641 13.2373 147.356 12.9488 147.166 12.6282C146.983 12.3076 146.891 11.9249 146.891 11.4794C146.891 10.6837 147.213 10.0571 147.86 9.59994C148.506 9.13653 149.393 8.90503 150.519 8.90503C151.568 8.90503 152.593 9.11904 153.595 9.54664L153.071 10.7491C152.092 10.3452 151.206 10.1433 150.412 10.1433C149.712 10.1433 149.185 10.2532 148.829 10.4731C148.473 10.6925 148.296 10.9956 148.296 11.3816C148.296 11.6426 148.361 11.8658 148.491 12.0498C148.627 12.2334 148.844 12.4087 149.14 12.5753C149.437 12.7414 150.006 12.9825 150.848 13.2968C152.004 13.7186 152.783 14.1429 153.187 14.5705C153.596 14.9981 153.8 15.5356 153.8 16.1831Z" fill="#FFFFFF"></path><path d="M21.6136 0.306056C22.0234 -0.102019 22.6877 -0.102019 23.0976 0.306056L37.2559 14.4092C37.6656 14.8173 37.6656 15.4791 37.2559 15.8874L35.9613 17.1767L20.3193 1.5958L21.6136 0.306056Z" fill="url(&quot;#paint0_linear&quot;)"></path><path d="M21.6136 0.306056C22.0234 -0.102019 22.6877 -0.102019 23.0976 0.306056L37.2559 14.4092C37.6656 14.8173 37.6656 15.4791 37.2559 15.8874L35.9613 17.1767L20.3193 1.5958L21.6136 0.306056Z" fill="url(&quot;#paint1_linear&quot;)"></path><path d="M24.5907 9.01947L15.9695 0.43591C15.5598 0.0278356 14.8948 0.0278353 14.4855 0.436384L0.507255 14.3665C0.0975183 14.7748 0.0975185 15.4366 0.507732 15.8447L8.3876 23.6897C8.79734 24.0976 9.46069 24.098 9.87114 23.6902L18.8653 14.7498L27.886 23.6954C28.295 24.1011 28.9557 24.1016 29.3657 23.6964L34.2921 18.8263L24.5907 9.01947ZM11.9391 14.9587C10.3162 14.9587 9.0531 13.6427 9.0531 12.0844C9.0531 10.5255 10.3162 9.20986 11.9391 9.20986C13.5621 9.20986 14.8252 10.5257 14.8252 12.0844C14.8247 13.6431 13.5616 14.9587 11.9391 14.9587Z" fill="url(&quot;#paint2_linear&quot;)"></path><path d="M24.5907 9.01947L15.9695 0.43591C15.5598 0.0278356 14.8948 0.0278353 14.4855 0.436384L0.507255 14.3665C0.0975183 14.7748 0.0975185 15.4366 0.507732 15.8447L8.3876 23.6897C8.79734 24.0976 9.46069 24.098 9.87114 23.6902L18.8653 14.7498L27.886 23.6954C28.295 24.1011 28.9557 24.1016 29.3657 23.6964L34.2921 18.8263L24.5907 9.01947ZM11.9391 14.9587C10.3162 14.9587 9.0531 13.6427 9.0531 12.0844C9.0531 10.5255 10.3162 9.20986 11.9391 9.20986C13.5621 9.20986 14.8252 10.5257 14.8252 12.0844C14.8247 13.6431 13.5616 14.9587 11.9391 14.9587Z" fill="url(&quot;#paint3_linear&quot;)"></path><path d="M12.9738 12.333C12.971 12.1981 12.9161 12.0773 12.8091 11.9707C12.7293 11.891 12.643 11.8444 12.551 11.8309C12.4573 11.8162 12.3679 11.8214 12.2826 11.847C12.1985 11.8715 12.0921 11.9111 11.9634 11.9664C11.8454 12.0189 11.7553 12.0562 11.6931 12.0778C11.6307 12.0965 11.5759 12.1039 11.5284 12.1001C11.4824 12.0946 11.439 12.0716 11.3983 12.0313C11.3413 11.9745 11.317 11.9111 11.3251 11.8409C11.3332 11.7706 11.3497 11.6951 11.485 11.56L11.7544 11.2918L11.5756 11.1137L11.378 11.3105C11.3685 11.3146 11.3611 11.3139 11.3556 11.3086L11.2071 11.1527C11.2004 11.146 11.1923 11.1432 11.1826 11.1446C11.173 11.1432 11.1649 11.146 11.1583 11.1527L10.9995 11.3105C10.9928 11.3174 10.9895 11.326 10.9895 11.3369C10.9895 11.345 10.9928 11.3523 10.9995 11.3592L11.154 11.505C11.1592 11.5104 11.1599 11.5178 11.1559 11.5273C11.0636 11.6514 11.0191 11.7784 11.0217 11.908C11.0257 12.0362 11.0794 12.1516 11.1823 12.2542C11.2622 12.3339 11.3485 12.3819 11.4405 12.3978C11.5313 12.4127 11.6207 12.4073 11.7086 12.3819C11.7968 12.3562 11.9038 12.3156 12.0299 12.2603C12.1451 12.2131 12.234 12.1799 12.2962 12.1611C12.3586 12.1395 12.4142 12.1314 12.463 12.1367C12.5105 12.1407 12.5531 12.1616 12.591 12.1996C12.6466 12.2546 12.6716 12.3204 12.6661 12.3959C12.6621 12.47 12.6304 12.5585 12.5503 12.638L12.1575 13.0152L12.3272 13.1973L12.597 12.9549C12.6065 12.9509 12.6139 12.9516 12.6194 12.9571L12.7536 13.0948C12.7603 13.1014 12.7679 13.1047 12.776 13.1047C12.7867 13.1047 12.7958 13.1014 12.8025 13.0948L12.9612 12.9369C12.9679 12.93 12.9707 12.9222 12.9693 12.9124C12.9705 12.903 12.9679 12.8949 12.9612 12.888L12.8251 12.7562C12.8196 12.751 12.8189 12.7434 12.823 12.7339C12.9264 12.6015 12.9767 12.4678 12.9738 12.333Z" fill="url(&quot;#paint4_linear&quot;)"></path><path d="M12.9738 12.333C12.971 12.1981 12.9161 12.0773 12.8091 11.9707C12.7293 11.891 12.643 11.8444 12.551 11.8309C12.4573 11.8162 12.3679 11.8214 12.2826 11.847C12.1985 11.8715 12.0921 11.9111 11.9634 11.9664C11.8454 12.0189 11.7553 12.0562 11.6931 12.0778C11.6307 12.0965 11.5759 12.1039 11.5284 12.1001C11.4824 12.0946 11.439 12.0716 11.3983 12.0313C11.3413 11.9745 11.317 11.9111 11.3251 11.8409C11.3332 11.7706 11.3497 11.6951 11.485 11.56L11.7544 11.2918L11.5756 11.1137L11.378 11.3105C11.3685 11.3146 11.3611 11.3139 11.3556 11.3086L11.2071 11.1527C11.2004 11.146 11.1923 11.1432 11.1826 11.1446C11.173 11.1432 11.1649 11.146 11.1583 11.1527L10.9995 11.3105C10.9928 11.3174 10.9895 11.326 10.9895 11.3369C10.9895 11.345 10.9928 11.3523 10.9995 11.3592L11.154 11.505C11.1592 11.5104 11.1599 11.5178 11.1559 11.5273C11.0636 11.6514 11.0191 11.7784 11.0217 11.908C11.0257 12.0362 11.0794 12.1516 11.1823 12.2542C11.2622 12.3339 11.3485 12.3819 11.4405 12.3978C11.5313 12.4127 11.6207 12.4073 11.7086 12.3819C11.7968 12.3562 11.9038 12.3156 12.0299 12.2603C12.1451 12.2131 12.234 12.1799 12.2962 12.1611C12.3586 12.1395 12.4142 12.1314 12.463 12.1367C12.5105 12.1407 12.5531 12.1616 12.591 12.1996C12.6466 12.2546 12.6716 12.3204 12.6661 12.3959C12.6621 12.47 12.6304 12.5585 12.5503 12.638L12.1575 13.0152L12.3272 13.1973L12.597 12.9549C12.6065 12.9509 12.6139 12.9516 12.6194 12.9571L12.7536 13.0948C12.7603 13.1014 12.7679 13.1047 12.776 13.1047C12.7867 13.1047 12.7958 13.1014 12.8025 13.0948L12.9612 12.9369C12.9679 12.93 12.9707 12.9222 12.9693 12.9124C12.9705 12.903 12.9679 12.8949 12.9612 12.888L12.8251 12.7562C12.8196 12.751 12.8189 12.7434 12.823 12.7339C12.9264 12.6015 12.9767 12.4678 12.9738 12.333Z" fill="url(&quot;#paint5_linear&quot;)"></path><defs><linearGradient id="paint0_linear" x1="20.3193" y1="0" x2="37.4959" y2="17.2437" gradientUnits="userSpaceOnUse"><stop offset="0.104167" stop-color="#ACC9DA"></stop><stop offset="0.203125" stop-color="#E7AED2"></stop><stop offset="0.317708" stop-color="#FF9ECA"></stop><stop offset="0.479167" stop-color="#6EFFFB"></stop><stop offset="0.536458" stop-color="#BCFFDF"></stop><stop offset="0.692708" stop-color="#FF9FB4"></stop><stop offset="0.918609" stop-color="#ACB8DA"></stop></linearGradient><linearGradient id="paint1_linear" x1="22.7442" y1="2.30812" x2="35.5776" y2="14.0596" gradientUnits="userSpaceOnUse"><stop stop-color="#D6E4F7" stop-opacity="0.83"></stop><stop offset="1" stop-color="#D6E4F7" stop-opacity="0.46"></stop></linearGradient><linearGradient id="paint2_linear" x1="0.200012" y1="0.129913" x2="22.6301" y2="32.1653" gradientUnits="userSpaceOnUse"><stop offset="0.104167" stop-color="#ACC9DA"></stop><stop offset="0.203125" stop-color="#E7AED2"></stop><stop offset="0.317708" stop-color="#FF9ECA"></stop><stop offset="0.479167" stop-color="#6EFFFB"></stop><stop offset="0.536458" stop-color="#BCFFDF"></stop><stop offset="0.692708" stop-color="#FF9FB4"></stop><stop offset="0.918609" stop-color="#ACB8DA"></stop></linearGradient><linearGradient id="paint3_linear" x1="4.99421" y1="3.33746" x2="22.2892" y2="25.8684" gradientUnits="userSpaceOnUse"><stop stop-color="#D6E4F7" stop-opacity="0.83"></stop><stop offset="1" stop-color="#D6E4F7" stop-opacity="0.46"></stop></linearGradient><linearGradient id="paint4_linear" x1="10.9895" y1="11.1137" x2="13.0706" y2="13.0958" gradientUnits="userSpaceOnUse"><stop offset="0.104167" stop-color="#ACC9DA"></stop><stop offset="0.203125" stop-color="#E7AED2"></stop><stop offset="0.317708" stop-color="#FF9ECA"></stop><stop offset="0.479167" stop-color="#6EFFFB"></stop><stop offset="0.536458" stop-color="#BCFFDF"></stop><stop offset="0.692708" stop-color="#FF9FB4"></stop><stop offset="0.918609" stop-color="#ACB8DA"></stop></linearGradient><linearGradient id="paint5_linear" x1="11.2686" y1="11.3937" x2="12.816" y2="12.738" gradientUnits="userSpaceOnUse"><stop stop-color="#D6E4F7" stop-opacity="0.83"></stop><stop offset="1" stop-color="#D6E4F7" stop-opacity="0.46"></stop></linearGradient><linearGradient id="paint0_linear" x1="20.3193" y1="0" x2="37.4959" y2="17.2437" gradientUnits="userSpaceOnUse"><stop offset="0.104167" stop-color="#ACC9DA"></stop><stop offset="0.203125" stop-color="#E7AED2"></stop><stop offset="0.317708" stop-color="#FF9ECA"></stop><stop offset="0.479167" stop-color="#6EFFFB"></stop><stop offset="0.536458" stop-color="#BCFFDF"></stop><stop offset="0.692708" stop-color="#FF9FB4"></stop><stop offset="0.918609" stop-color="#ACB8DA"></stop></linearGradient><linearGradient id="paint1_linear" x1="22.7442" y1="2.30812" x2="35.5776" y2="14.0596" gradientUnits="userSpaceOnUse"><stop stop-color="#D6E4F7" stop-opacity="0.83"></stop><stop offset="1" stop-color="#D6E4F7" stop-opacity="0.46"></stop></linearGradient><linearGradient id="paint2_linear" x1="0.200012" y1="0.129913" x2="22.6301" y2="32.1653" gradientUnits="userSpaceOnUse"><stop offset="0.104167" stop-color="#ACC9DA"></stop><stop offset="0.203125" stop-color="#E7AED2"></stop><stop offset="0.317708" stop-color="#FF9ECA"></stop><stop offset="0.479167" stop-color="#6EFFFB"></stop><stop offset="0.536458" stop-color="#BCFFDF"></stop><stop offset="0.692708" stop-color="#FF9FB4"></stop><stop offset="0.918609" stop-color="#ACB8DA"></stop></linearGradient><linearGradient id="paint3_linear" x1="4.99421" y1="3.33746" x2="22.2892" y2="25.8684" gradientUnits="userSpaceOnUse"><stop stop-color="#D6E4F7" stop-opacity="0.83"></stop><stop offset="1" stop-color="#D6E4F7" stop-opacity="0.46"></stop></linearGradient><linearGradient id="paint4_linear" x1="10.9895" y1="11.1137" x2="13.0706" y2="13.0958" gradientUnits="userSpaceOnUse"><stop offset="0.104167" stop-color="#ACC9DA"></stop><stop offset="0.203125" stop-color="#E7AED2"></stop><stop offset="0.317708" stop-color="#FF9ECA"></stop><stop offset="0.479167" stop-color="#6EFFFB"></stop><stop offset="0.536458" stop-color="#BCFFDF"></stop><stop offset="0.692708" stop-color="#FF9FB4"></stop><stop offset="0.918609" stop-color="#ACB8DA"></stop></linearGradient><linearGradient id="paint5_linear" x1="11.2686" y1="11.3937" x2="12.816" y2="12.738" gradientUnits="userSpaceOnUse"><stop stop-color="#D6E4F7" stop-opacity="0.83"></stop><stop offset="1" stop-color="#D6E4F7" stop-opacity="0.46"></stop></linearGradient></defs></svg>